<?xml version="1.0" encoding="UTF-8" standalone="no"?>
<!DOCTYPE svg PUBLIC "-//W3C//DTD SVG 1.1//EN" "http://www.w3.org/Graphics/SVG/1.1/DTD/svg11.dtd">
<svg width="100%" height="100%" viewBox="0 0 4500 4500" version="1.1" xmlns="http://www.w3.org/2000/svg" xmlns:xlink="http://www.w3.org/1999/xlink" xml:space="preserve" xmlns:serif="http://www.serif.com/" style="fill-rule:evenodd;clip-rule:evenodd;stroke-linejoin:round;stroke-miterlimit:2;">
    <g id="Layer-1" serif:id="Layer 1" transform="matrix(4.16667,0,0,4.16667,0,0)">
        <g transform="matrix(1,0,0,1,345.284,738.99)">
            <path d="M0,-408.383C-0.292,-413.456 -1.28,-420.92 -4.698,-429.188C-7.33,-435.556 -9.041,-436.685 -10.067,-440.597C-12.262,-448.971 -7.806,-456.708 0.671,-470.127C12.198,-488.372 24.586,-506.716 24.161,-507.039C23.858,-507.269 17.177,-498.313 16.107,-498.985C14.426,-500.042 33.874,-520.321 32.214,-543.951C31.948,-547.741 31.106,-552.089 33.556,-556.703C36.607,-562.445 42.525,-564.391 51.677,-567.441C84.856,-578.497 92.106,-581.251 97.314,-576.836C100.542,-574.099 100.945,-570.337 104.025,-570.125C107.672,-569.874 109.299,-574.999 115.434,-580.192C118.563,-582.84 123.995,-587.438 130.199,-587.575C139.981,-587.79 142.442,-576.715 155.031,-574.823C162.076,-573.764 162.383,-577.078 168.453,-576.165C182.373,-574.074 184.326,-556.08 197.983,-549.32C208.883,-543.925 219.957,-549.289 230.197,-552.005C280.811,-565.428 347.511,-523.829 370.463,-494.959C375.075,-489.158 382.669,-477.898 397.309,-465.429C407.309,-456.911 410.657,-456.295 417.442,-448.651C427.35,-437.488 423.988,-434.545 435.563,-417.108C444.458,-403.707 449.679,-400.571 455.697,-386.907C458.028,-381.613 459.716,-377.7 460.395,-372.142C461.946,-359.443 456.508,-352.28 453.683,-341.941C448.887,-324.389 457.62,-319.627 457.71,-297.647C457.772,-282.548 453.68,-277.896 443.616,-247.312C443.151,-245.896 443.603,-247.254 427.509,-189.595C427.509,-189.595 406.05,-112.713 404.691,-113.086C403.832,-113.322 435.035,-173.823 412.745,-226.507C409.69,-233.727 396.245,-265.504 366.437,-271.473C347.23,-275.318 322.987,-268.097 312.746,-251.339C307.109,-242.113 306.884,-231.912 306.706,-223.822C306.404,-210.08 310.201,-206.726 312.075,-186.239C312.691,-179.507 312.709,-173.25 312.746,-160.736C312.786,-147.275 312.339,-143.722 312.075,-123.153C311.802,-101.847 312.197,-99.055 312.746,-96.308C315.404,-83.02 319.508,-81.59 319.458,-72.147C319.4,-61.475 314.146,-60.961 310.957,-46.421C307.944,-32.685 312.217,-31.247 309.167,-15.996C306.892,-4.622 304.356,-4.622 302.008,7.717C299.517,20.81 302.074,22.387 299.771,31.43C297.56,40.116 292.48,46.467 282.322,59.17C275.572,67.611 269.112,75.689 258.608,84.673C247.565,94.119 238.242,99.651 227.737,105.702C219.439,110.481 206.89,117.709 189.258,124.494C168.928,132.317 161.367,132.036 152.346,141.272C145.644,148.134 147.489,150.673 140.042,158.05C130.221,167.78 119.071,171.231 109.618,174.157C105.051,175.571 91.519,179.407 73.824,178.631C60.241,178.036 49.852,174.971 40.268,172.144C38.487,171.619 30.983,169.374 21.476,165.433C14.818,162.672 10.106,160.719 4.474,157.155C1.57,155.318 -2.207,152.654 -9.396,145.97C-21.611,134.611 -27.719,128.931 -32.214,121.138C-38.508,110.227 -40.027,100.107 -40.939,93.622C-42.121,85.212 -41.519,77.61 -40.268,62.75C-39.324,51.539 -38.625,48.68 -36.241,29.193C-32.599,-0.577 -33.593,0.892 -32.214,-3.021C-24.657,-24.464 -7.138,-33.794 -10.291,-39.262C-11.063,-40.602 -16.782,-41.217 -28.187,-42.394C-36.97,-43.3 -38.264,-43.143 -41.61,-44.184C-45.711,-45.459 -53.09,-47.754 -55.927,-54.027C-58.117,-58.867 -56.536,-63.723 -55.033,-68.344C-51.31,-79.784 -42.215,-89.286 -39.82,-88.031C-38.387,-87.279 -38.974,-82.474 -40.715,-79.082C-42.431,-75.738 -44.346,-75.566 -46.979,-72.371C-47.842,-71.323 -53.745,-64.16 -51.006,-58.501C-49.112,-54.588 -43.679,-52.621 -39.373,-53.579C-36.196,-54.287 -34.337,-56.43 -32.214,-58.948C-29.64,-62.003 -26.734,-66.617 -23.713,-78.187C-21.521,-86.587 -22.648,-85.703 -21.029,-90.715C-19.257,-96.198 -16.565,-104.528 -8.948,-109.507C-7.21,-110.643 -0.42,-115.082 4.922,-112.639C10.74,-109.977 10.174,-101.284 13.423,-101.006C17.212,-100.681 17.545,-112.548 26.398,-118.008C35.416,-123.569 47.376,-118.844 48.321,-118.455C51.292,-117.234 51.105,-116.642 60.849,-109.507C69.226,-103.372 73.415,-100.305 75.614,-99.664C85.966,-96.644 90.984,-104.233 98.88,-100.558C104.131,-98.114 102.715,-94.383 109.618,-87.583C110.24,-86.97 124.155,-73.534 132.884,-78.187C137.227,-80.503 139.204,-86.722 139.147,-91.163C139.106,-94.357 138.008,-96.965 137.591,-97.933C136.932,-99.457 135.83,-101.463 133.331,-104.138C127.599,-110.273 122.236,-111.672 122.593,-113.086C122.888,-114.256 126.983,-114.978 130.647,-113.981C140.473,-111.307 147.307,-96.239 146.306,-83.109C145.321,-70.185 136.818,-60.104 136.463,-60.291C136.054,-60.506 141.053,-77.165 153.465,-88.031C163.758,-97.041 174.036,-97.592 186.127,-100.558C189.3,-101.337 227.017,-111.018 250.555,-137.694C265.522,-154.657 270.26,-173.395 276.505,-198.096C280.154,-212.526 283.587,-226.106 282.322,-244.18C281.579,-254.794 276.756,-268.854 267.109,-296.976C259.203,-320.026 255.249,-331.552 248.318,-346.639C238.527,-367.951 236.261,-367.535 234.895,-376.169C230.743,-402.412 249.954,-417.127 242.501,-427.175C240.27,-430.183 227.114,-431.16 200.891,-432.991C180.733,-434.399 179.382,-434.084 174.046,-435.676C161.525,-439.412 157.385,-444.605 146.754,-444.177C140.847,-443.939 141.661,-442.317 130.199,-440.15C123.205,-438.827 117.781,-438.522 106.933,-437.913C95.906,-437.293 90.393,-436.983 86.352,-437.465C72.015,-439.176 71.078,-444.381 63.534,-443.729C50.986,-442.645 48.929,-427.848 33.109,-417.331C26.651,-413.039 16.319,-408.409 0,-408.383" style="fill:rgb(30,19,15);fill-rule:nonzero;"/>
        </g>
        <g transform="matrix(1,0,0,1,389.626,469.458)">
            <path d="M0,-0.341C39.828,-23.31 93.368,-14.999 157.489,17.449C88.097,5.105 29.377,0.344 9.202,22.969C2.471,17.945 -2.763,11.799 0,-0.341" style="fill:rgb(30,19,15);fill-rule:nonzero;"/>
        </g>
        <g transform="matrix(0.623158,-0.782096,-0.782096,-0.623158,378.669,480.8)">
            <path d="M-18.255,-10.515C-12.113,-5.098 -8.519,3.516 -7.475,15.33L-18.255,33.408C-28.067,31.08 -36.094,26.515 -42.337,19.71C-25.651,9.365 -17.782,-0.705 -18.255,-10.515" style="fill:rgb(30,19,15);fill-rule:nonzero;"/>
        </g>
    </g>
</svg>
