<svg id="icon-about" viewBox="0 0 4500 4500">
<path d="M1009.72 1052.47c-1.72-29.77-7.51-73.58-27.57-122.12-15.45-37.37-25.49-44-31.5-66.96-12.89-49.16 13.26-94.57 63-173.34C1081.3 582.96 1154 475.3 1151.5 473.4c-1.78-1.35-40.98 51.22-47.26 47.28-9.87-6.2 104.26-125.24 94.51-263.94-1.56-22.25-6.5-47.77 7.88-74.85 17.9-33.7 52.63-45.13 106.34-63.03 194.7-64.9 237.24-81.06 267.8-55.15 18.95 16.07 21.31 38.15 39.38 39.4 21.4 1.47 30.95-28.61 66.95-59.1 18.37-15.54 50.24-42.53 86.65-43.33 57.4-1.26 71.84 63.74 145.72 74.85 41.34 6.22 43.14-13.24 78.76-7.88 81.68 12.28 93.14 117.9 173.29 157.57 63.96 31.67 128.94.19 189.03-15.76 297.01-78.78 688.42 165.39 823.1 334.85 27.07 34.05 71.63 100.14 157.54 173.33 58.69 50 78.33 53.61 118.15 98.48 58.14 65.53 38.41 82.8 106.34 185.15 52.2 78.66 82.83 97.07 118.15 177.27 13.67 31.08 23.58 54.04 27.56 86.67 9.1 74.54-22.8 116.58-39.38 177.27-28.15 103.02 23.1 130.98 23.63 260 .36 88.62-23.65 115.93-82.7 295.44-2.74 8.32-.08.35-94.53 338.79 0 0-125.92 451.27-133.9 449.08-5.04-1.38 178.07-356.5 47.27-665.75-17.93-42.38-96.83-228.9-271.75-263.93-112.7-22.57-254.97 19.81-315.07 118.18-33.07 54.15-34.4 114.03-35.44 161.51-1.77 80.67 20.51 100.35 31.5 220.6 3.62 39.52 3.73 76.25 3.94 149.7.24 79.01-2.38 99.87-3.93 220.6-1.6 125.06.71 141.45 3.93 157.57 15.6 78 39.69 86.4 39.4 141.82-.35 62.64-31.18 65.66-49.9 151-17.67 80.63 7.4 89.07-10.5 178.6-13.35 66.76-28.23 66.76-42 139.18-14.63 76.85.38 86.11-13.13 139.19-12.98 50.98-42.79 88.26-102.4 162.83-39.6 49.54-77.52 96.96-139.16 149.7-64.8 55.44-119.5 87.9-181.15 123.43-48.7 28.05-122.34 70.47-225.8 110.3-119.3 45.92-163.67 44.27-216.61 98.48-39.33 40.28-28.5 55.18-72.2 98.48-57.63 57.12-123.06 77.37-178.54 94.55-26.8 8.3-106.2 30.81-210.04 26.26-79.7-3.5-140.67-21.49-196.91-38.08-10.45-3.08-54.49-16.26-110.28-39.4-39.07-16.2-66.72-27.66-99.77-48.58-17.04-10.78-39.2-26.42-81.39-65.65-71.68-66.68-107.52-100.02-133.9-145.76-36.93-64.04-45.85-123.45-51.2-161.51-6.94-49.36-3.4-93.99 3.94-181.21 5.54-65.8 9.64-82.59 23.63-196.97 21.37-174.74 15.54-166.12 23.63-189.09 44.35-125.86 147.15-180.63 128.65-212.72-4.53-7.87-38.1-11.48-105.02-18.39-51.54-5.31-59.13-4.4-78.77-10.5-24.06-7.49-67.36-20.96-84.01-57.78-12.85-28.4-3.58-56.91 5.24-84.03 21.85-67.15 75.22-122.93 89.28-115.56 8.4 4.41 4.96 32.62-5.26 52.53-10.06 19.62-21.3 20.63-36.75 39.39-5.07 6.15-39.7 48.2-23.63 81.41 11.11 22.97 43 34.52 68.26 28.9 18.64-4.16 29.55-16.74 42.01-31.52 15.1-17.93 32.16-45.02 49.89-112.93 12.86-49.3 6.25-44.12 15.75-73.54 10.4-32.18 26.2-81.07 70.89-110.3 10.2-6.67 50.04-32.72 81.4-18.38 34.13 15.62 30.81 66.65 49.88 68.28 22.23 1.9 24.18-67.75 76.14-99.8 52.91-32.64 123.1-4.9 128.64-2.62 17.44 7.17 16.34 10.64 73.52 52.52 49.16 36.01 73.74 54.01 86.64 57.78 60.75 17.72 90.2-26.82 136.53-5.25 30.82 14.34 22.5 36.24 63.01 76.16 3.65 3.6 85.31 82.46 136.53 55.15 25.49-13.6 37.09-50.1 36.76-76.17-.24-18.74-6.69-34.05-9.13-39.73-3.87-8.95-10.34-20.72-25-36.42-33.64-36.02-65.11-44.23-63.02-52.53 1.74-6.86 25.77-11.1 47.27-5.25 57.66 15.7 97.76 104.14 91.89 181.2-5.78 75.87-55.68 135.04-57.76 133.94-2.4-1.26 26.93-99.04 99.77-162.82 60.4-52.89 120.71-56.12 191.66-73.53 18.62-4.57 239.95-61.4 378.08-217.98 87.83-99.57 115.63-209.55 152.28-354.54 21.4-84.7 41.55-164.41 34.13-270.5-4.36-62.3-32.66-144.83-89.27-309.9-46.4-135.3-69.6-202.95-110.27-291.5-57.46-125.1-70.75-122.66-78.77-173.34-24.36-154.04 88.37-240.41 44.63-299.39-13.09-17.66-90.29-23.39-244.17-34.14-118.29-8.26-126.22-6.41-157.53-15.76-73.48-21.93-97.77-52.4-160.15-49.9-34.67 1.4-29.9 10.92-97.15 23.64-41.04 7.77-72.87 9.56-136.53 13.13-64.71 3.64-97.06 5.46-120.77 2.63-84.14-10.04-89.63-40.6-133.9-36.77-73.64 6.37-85.7 93.22-178.54 154.95-37.9 25.2-98.53 52.37-194.3 52.52"/>
<path d="M1311.21 1648.03c264.38-194.66 619.77-124.22 1045.39 150.77-460.61-104.61-850.39-144.96-984.3 46.78-44.68-42.58-79.43-94.66-61.09-197.55M1212.11 1853.58c-3.46-69.32-41.58-138.64-114.37-207.95l-176.76-24.02c-36.38 77.33-48.52 154.64-36.38 231.96 156.69-55.96 264.99-54.94 327.51 0"/>
</svg>